<?xml version="1.0" encoding="UTF-8" standalone="no"?>
<!-- Created with Inkscape (http://www.inkscape.org/) -->

<svg
   xmlns:dc="http://purl.org/dc/elements/1.1/"
   xmlns:cc="http://creativecommons.org/ns#"
   xmlns:rdf="http://www.w3.org/1999/02/22-rdf-syntax-ns#"
   xmlns:svg="http://www.w3.org/2000/svg"
   xmlns="http://www.w3.org/2000/svg"
   xmlns:xlink="http://www.w3.org/1999/xlink"
   xmlns:sodipodi="http://sodipodi.sourceforge.net/DTD/sodipodi-0.dtd"
   xmlns:inkscape="http://www.inkscape.org/namespaces/inkscape"
   width="30"
   height="26"
   viewBox="0 0 30 26"
   id="svg2"
   version="1.1"
   inkscape:version="0.91 r13725"
   sodipodi:docname="document-save_btn.svg">
  <defs
     id="defs4">
    <linearGradient
       x1="28.315"
       y1="20.71"
       gradientTransform="matrix(0,-0.31945,-0.31335,0,15.561,13.086)"
       x2=".81572"
       gradientUnits="userSpaceOnUse"
       y2="20.71"
       id="linearGradient3374">
      <stop
         offset="0"
         style="stop-color:#d0e08f"
         id="stop3652" />
      <stop
         offset="1"
         style="stop-color:#9fba48"
         id="stop4172" />
    </linearGradient>
    <linearGradient
       x1="53.991"
       y1="87.896"
       gradientTransform="matrix(0.12421,0,0,0.1864,0.23313,-3.9907)"
       x2="53.991"
       gradientUnits="userSpaceOnUse"
       y2="104.28"
       id="linearGradient8226">
      <stop
         offset="0"
         style="stop-color:#7a7a7a"
         id="stop2223-6-4" />
      <stop
         offset="1"
         style="stop-color:#474747"
         id="stop2219-1-2" />
    </linearGradient>
    <linearGradient
       x1="7.0625"
       y1="35.281"
       gradientTransform="matrix(0.55458,0,0,0.35955,-1.6911,1.3146)"
       x2="24.688"
       gradientUnits="userSpaceOnUse"
       y2="35.281"
       id="linearGradient8223">
      <stop
         offset="0"
         id="stop6311-0" />
      <stop
         offset="1"
         style="stop-color:#bbb;stop-opacity:0"
         id="stop6313-7" />
    </linearGradient>
    <linearGradient
       x1="12.277"
       y1="37.206"
       gradientTransform="matrix(0.55458,0,0,0.35955,-2.1323,1.7913)"
       x2="12.222"
       gradientUnits="userSpaceOnUse"
       y2="33.759"
       id="linearGradient8220">
      <stop
         offset="0"
         style="stop-color:#eee"
         id="stop4238-4-4" />
      <stop
         offset="1"
         style="stop-color:#eee;stop-opacity:0"
         id="stop4240-3-9" />
    </linearGradient>
    <linearGradient
       x1="4.6104"
       y1="11.321"
       gradientTransform="matrix(0.64516,0,0,0.97976,0.25806,-6.7257)"
       x2="2.2246"
       gradientUnits="userSpaceOnUse"
       y2="6.8647"
       id="linearGradient8217">
      <stop
         offset="0"
         style="stop-color:#969696"
         id="stop3486-2-4" />
      <stop
         offset="1"
         style="stop-color:#b4b4b4"
         id="stop3488-0-2" />
    </linearGradient>
    <radialGradient
       r="8"
       gradientTransform="matrix(1.1767,1.0377,-0.76928,0.87233,1.0364,-3.2772)"
       cx="4.1993"
       cy="2.3118"
       gradientUnits="userSpaceOnUse"
       id="radialGradient8215">
      <stop
         offset="0"
         style="stop-color:#e6e6e6"
         id="stop7064-4-6" />
      <stop
         offset="1"
         style="stop-color:#c8c8c8"
         id="stop7060-2-1" />
    </radialGradient>
    <radialGradient
       r="78.728"
       gradientTransform="matrix(0.12709,-0.0021289,9.4059e-4,0.12249,-10.298,-14.5)"
       cx="141.75"
       cy="206.43"
       gradientUnits="userSpaceOnUse"
       xlink:href="#linearGradient4035-5"
       id="radialGradient8211" />
    <radialGradient
       r="78.728"
       gradientTransform="matrix(0.061651,0,0,-0.065372,-1.0371,17.524)"
       cx="142.62"
       cy="191.85"
       gradientUnits="userSpaceOnUse"
       xlink:href="#linearGradient4035-5"
       id="radialGradient8208" />
    <radialGradient
       r="21"
       gradientTransform="matrix(0.33333,0,0,0.14286,6.5e-7,8)"
       cx="24"
       cy="42"
       gradientUnits="userSpaceOnUse"
       id="radialGradient8201">
      <stop
         offset="0"
         style="stop-color:#fff"
         id="stop6312-6-2" />
      <stop
         offset="1"
         style="stop-color:#fff;stop-opacity:0"
         id="stop6314-6-0" />
    </radialGradient>
    <radialGradient
       r="78.728"
       gradientTransform="matrix(0.041797,-0.013884,0.0033869,0.037975,-0.54191,-0.79595)"
       cx="127.32"
       cy="143.83"
       gradientUnits="userSpaceOnUse"
       id="radialGradient8198">
      <stop
         offset="0"
         style="stop-color:#f5f5f5"
         id="stop8107" />
      <stop
         offset=".25028"
         style="stop-color:#e7e7e7"
         id="stop8109" />
      <stop
         offset=".69349"
         style="stop-color:#8c8c8c"
         id="stop8111" />
      <stop
         offset=".83543"
         style="stop-color:#ddd"
         id="stop8113" />
      <stop
         offset="1"
         style="stop-color:#a8a8a8"
         id="stop8115" />
    </radialGradient>
    <linearGradient
       id="linearGradient4035-5">
      <stop
         offset="0"
         style="stop-color:#f5f5f5"
         id="stop4037-8" />
      <stop
         offset=".47026"
         style="stop-color:#e7e7e7"
         id="stop4039-7" />
      <stop
         offset=".69349"
         style="stop-color:#8c8c8c"
         id="stop4041-0" />
      <stop
         offset=".83543"
         style="stop-color:#ddd"
         id="stop4043-4" />
      <stop
         offset="1"
         style="stop-color:#a8a8a8"
         id="stop4045-8" />
    </linearGradient>
  </defs>
  <sodipodi:namedview
     id="base"
     pagecolor="#ffffff"
     bordercolor="#666666"
     borderopacity="1.0"
     inkscape:pageopacity="0.0"
     inkscape:pageshadow="2"
     inkscape:zoom="13.052013"
     inkscape:cx="12"
     inkscape:cy="11.079007"
     inkscape:document-units="px"
     inkscape:current-layer="layer1"
     showgrid="false"
     units="px"
     width="17px"
     borderlayer="true"
     inkscape:snap-bbox="true"
     inkscape:bbox-nodes="true"
     inkscape:window-width="971"
     inkscape:window-height="576"
     inkscape:window-x="53"
     inkscape:window-y="24"
     inkscape:window-maximized="1" />
  <metadata
     id="metadata7">
    <rdf:RDF>
      <cc:Work
         rdf:about="">
        <dc:format>image/svg+xml</dc:format>
        <dc:type
           rdf:resource="http://purl.org/dc/dcmitype/StillImage" />
        <dc:title />
      </cc:Work>
    </rdf:RDF>
  </metadata>
  <g
     inkscape:label="Ebene 1"
     inkscape:groupmode="layer"
     id="layer1"
     transform="translate(0,-1026.3622)">
    <rect
       style="fill:#f0f0f0;fill-opacity:1;fill-rule:evenodd;stroke:#a2a2a2;stroke-width:1px;stroke-linecap:butt;stroke-linejoin:round;stroke-opacity:1"
       id="rect3436"
       width="28.807817"
       height="24.747602"
       x="0.68954879"
       y="1027.0022"
       ry="4.0606766" />
    <g
       id="g3749"
       transform="translate(7.0000323,1031.3623)">
      <g
         id="g3119">
        <path
           d="m 15.497,12.5 c -0.30416,2.535 -0.22639,2.9839 -0.77717,2.9839 -0.21573,0.03617 -8.6983,0 -13.47,0 -0.59814,0 -0.447,0.04932 -0.7499,-2.9839 4.8142,0.13977 10.032,-0.37056 14.997,0 z"
           style="fill:url(#linearGradient8226);stroke:#353537;stroke-linejoin:round"
           id="rect2992-5"
           inkscape:connector-curvature="0" />
        <path
           d="m 2,13 10,0 0,2 L 2.2256,15 2,13 Z"
           style="fill:url(#linearGradient8223);fill-rule:evenodd"
           id="rect9146-5"
           inkscape:connector-curvature="0" />
        <path
           d="M 2.2256,15 2.07522,13.5577 C 3.09312,14.7008 6.82662,15 9.40042,15 l -7.1749,0 z"
           style="opacity:0.81142997;fill:url(#linearGradient8220);fill-rule:evenodd"
           id="path9148-2"
           inkscape:connector-curvature="0" />
        <path
           d="M 1.4897,1.4658 0.51475,12.4888 C 0.505,12.4888 0.5,12.4918 0.5,12.4998 l 15,0 c 0,-0.0082 -0.005,-0.01111 -0.01475,-0.01111 l -1.005,-11.241 c 0,0 -0.18775,-0.7434 -0.90964,-0.7434 -0.68815,0 -10.535,-0.004447 -11.26,-0.004447 -0.75868,0 -0.82051,0.96576 -0.82051,0.96576 z"
           style="fill:url(#radialGradient8215);stroke:url(#linearGradient8217);stroke-linecap:round;stroke-linejoin:round"
           id="rect2990-9"
           inkscape:connector-curvature="0" />
        <path
           d="m 1.4763,12.5 13.047,0"
           style="opacity:0.7;fill:none;stroke:#ffffff;stroke-linecap:round;stroke-linejoin:round"
           id="path2215-0"
           inkscape:connector-curvature="0" />
        <path
           d="M 9.875,1.0312 C 9.5425,1.0312 9.2896,1.1934 9.2812,1.4375 7.5462,4.2547 3.716,3.331 2.1875,6.6875 2.1073,7.5502 2.3134,8.6701 3.0938,9.375 4.236,10.407 6.138,11.041 8.1562,11 12.322,10.915 15.991,8.1998 12.812,4.6562 12.795,4.4114 12.562,1.4375 12.562,1.4375 12.545,1.1967 12.268,1.0312 11.938,1.0312 l -2.0625,0 z m -0.03125,0.4375 2.0625,0 c 0.1199,0 0.214,0.027064 0.21875,0.09375 l -0.437,3.0938 c 3.473,2.8052 0.258,5.1235 -3.438,5.25 -3.3581,0.1148 -5.2801,-1.0583 -5.0938,-3.0624 1.1782,-3.3771 5.7075,-1.762 6.4688,-5.2813 -0.0195,-0.0627 0.1015,-0.0937 0.2188,-0.0937 z"
           style="fill:url(#radialGradient8211)"
           id="path8117"
           inkscape:connector-curvature="0" />
        <path
           d="M 7.9999,8.9999 C 7.3338,9.004 6.6179,8.7648 6.2183,8.2045 5.8879,7.7377 5.9413,7.0421 6.3494,6.638 6.8328,6.1198 7.5867,5.9505 8.2719,6.0129 8.879,6.0691 9.5104,6.3443 9.8354,6.883 10.087,7.317 10.047,7.9042 9.7165,8.2869 9.3098,8.7948 8.6299,8.9998 7.9999,8.9999 Z M 8.033429,6.9404 c -0.4657,0.0106 -0.9649,-0.0032 -1.3803,0.2407 -0.2744,0.1909 -0.298,0.6023 -0.1132,0.8636 0.2517,0.392 0.7264,0.5638 1.1687,0.6235 0.5705,0.0718 1.1976,-0.0568 1.6262,-0.4584 0.2414,-0.24 0.3518,-0.6735 0.1113,-0.9512 -0.2382,-0.2503 -0.6084,-0.2735 -0.932,-0.3044 -0.16,-0.0106 -0.3204,-0.0122 -0.4806,-0.0138 z"
           style="fill:url(#radialGradient8208)"
           id="path9400"
           inkscape:connector-curvature="0" />
        <g
           transform="matrix(-0.046858,0,0,0.077502,4.3055,-2.9911)"
           id="g9436">
          <path
             d="m 37.925,187.15 c 0.31446,3.4586 5.0238,6.279 10.514,6.279 5.4879,0 9.6432,-2.8205 9.2763,-6.279 -0.36437,-3.4402 -5.0712,-6.2181 -10.507,-6.2181 -5.438,0.002 -9.5933,2.7778 -9.2838,6.2181 z"
             style="fill:#535353"
             id="path9438"
             inkscape:connector-curvature="0" />
        </g>
        <g
           transform="matrix(-0.046858,0,0,0.077502,16.206,-2.9911)"
           id="g9496">
          <path
             d="m 37.925,187.15 c 0.31446,3.4586 5.0238,6.279 10.514,6.279 5.4879,0 9.6432,-2.8205 9.2763,-6.279 -0.36437,-3.4402 -5.0712,-6.2181 -10.507,-6.2181 -5.438,0.002 -9.5933,2.7778 -9.2838,6.2181 z"
             style="fill:#535353"
             id="path9498"
             inkscape:connector-curvature="0" />
        </g>
        <rect
           x="1"
           y="13"
           width="14"
           height="2"
           style="opacity:0.2;fill:url(#radialGradient8201)"
           id="rect6300-3-2" />
        <path
           d="M 3.549,1.2794 C 3.5821,1.4639 3.5033,1.6681 3.4766,1.8578 3.3642,2.438 3.2481,3.0174 3.1388,3.5982 3.0365,3.9765 3.4034,3.8226 3.4488,3.861 3.9285,3.6779 4.4038,3.4775 4.8814,3.2862 5.3796,3.0824 5.8809,2.8849 6.3773,2.6771 6.6903,2.4909 6.7821,2.3238 6.8636,2.0429 6.9085,1.799 6.9139,1.5263 6.792,1.3034 6.7139,1.1494 6.5435,1.0842 6.3798,1.1074 l -2.6026,0 -0.2282,0.172 z m 0.58899,0.44397 c 0.59213,0 1.1843,-1e-7 1.7764,-1e-7 0.1871,0.070513 0.054625,0.21948 -0.083295,0.23252 -0.6014,0.2439 -1.2028,0.4878 -1.8041,0.7317 -0.1446,0.0544 -0.155,-0.1673 -0.1113,-0.2613 0.037079,-0.20752 0.074157,-0.41504 0.11124,-0.62256 0.041217,-0.021125 0.065659,-0.065363 0.11102,-0.080349 z"
           style="fill:url(#radialGradient8198)"
           id="path8125"
           inkscape:connector-curvature="0" />
      </g>
      <path
         d="m 12.5,5.5 -4.4403,5 -4.5597,-5 2,0 0,-5 5,0 0,5 2,0 z"
         style="fill:url(#linearGradient3374);stroke:#699536;stroke-width:0.99829;stroke-linecap:round;stroke-linejoin:round"
         id="path3288"
         inkscape:connector-curvature="0" />
    </g>
  </g>
</svg>
