<?xml version="1.0" encoding="UTF-8" standalone="no"?>
<!-- Created with Inkscape (http://www.inkscape.org/) -->

<svg
   xmlns:dc="http://purl.org/dc/elements/1.1/"
   xmlns:cc="http://creativecommons.org/ns#"
   xmlns:rdf="http://www.w3.org/1999/02/22-rdf-syntax-ns#"
   xmlns:svg="http://www.w3.org/2000/svg"
   xmlns="http://www.w3.org/2000/svg"
   xmlns:sodipodi="http://sodipodi.sourceforge.net/DTD/sodipodi-0.dtd"
   xmlns:inkscape="http://www.inkscape.org/namespaces/inkscape"
   width="30"
   height="26"
   viewBox="0 0 30 26"
   id="svg2"
   version="1.1"
   inkscape:version="0.91 r13725"
   sodipodi:docname="gtk-edit_btn.svg">
  <defs
     id="defs4">
    <linearGradient
       x1="5.5179"
       y1="37.372"
       gradientTransform="matrix(0.37638,0.036153,0.0367,0.37487,-2.2183,-1.1331)"
       x2="9.5221"
       gradientUnits="userSpaceOnUse"
       y2="41.392"
       id="linearGradient8655">
      <stop
         offset="0"
         style="stop-color:#dbce48"
         id="stop2613" />
      <stop
         offset="1"
         style="stop-color:#c5b625"
         id="stop2615" />
    </linearGradient>
    <linearGradient
       x1="9"
       y1="29.057"
       gradientTransform="matrix(0.40402,-0.40569,0.60738,0.60227,-17.637,0.46249)"
       x2="9"
       gradientUnits="userSpaceOnUse"
       y2="26.03"
       id="linearGradient8653">
      <stop
         offset="0"
         style="stop-color:#ece5a5"
         id="stop2607" />
      <stop
         offset="1"
         style="stop-color:#fcfbf2"
         id="stop2609" />
    </linearGradient>
    <linearGradient
       x1="30.038"
       y1="24.99"
       gradientTransform="matrix(0.40402,-0.40569,0.60738,0.60227,-17.177,-2.197e-4)"
       x2="30.038"
       gradientUnits="userSpaceOnUse"
       y2="30"
       id="linearGradient8651">
      <stop
         offset="0"
         style="stop-color:#b1b1b1"
         id="stop2599" />
      <stop
         offset=".5"
         style="stop-color:#fff"
         id="stop2601" />
      <stop
         offset="1"
         style="stop-color:#8f8f8f"
         id="stop2603" />
    </linearGradient>
    <linearGradient
       x1="30.038"
       y1="24.99"
       gradientTransform="matrix(0.40402,-0.40569,0.60738,0.60227,-17.062,-0.11641)"
       x2="30.038"
       gradientUnits="userSpaceOnUse"
       y2="30"
       id="linearGradient8649">
      <stop
         offset="0"
         style="stop-color:#565656"
         id="stop2591" />
      <stop
         offset=".5"
         style="stop-color:#9a9a9a"
         id="stop2593" />
      <stop
         offset="1"
         style="stop-color:#545454"
         id="stop2595" />
    </linearGradient>
    <linearGradient
       x1="30.038"
       y1="24.99"
       gradientTransform="matrix(0.40402,-0.40569,0.60738,0.60227,-17.581,0.40547)"
       x2="30.038"
       gradientUnits="userSpaceOnUse"
       y2="30"
       id="linearGradient8647">
      <stop
         offset="0"
         style="stop-color:#b1b1b1"
         id="stop2583" />
      <stop
         offset=".5"
         style="stop-color:#fff"
         id="stop2585" />
      <stop
         offset="1"
         style="stop-color:#8f8f8f"
         id="stop2587" />
    </linearGradient>
    <linearGradient
       x1="30.038"
       y1="24.99"
       gradientTransform="matrix(0.40402,-0.40569,0.60738,0.60227,-17.466,0.28929)"
       x2="30.038"
       gradientUnits="userSpaceOnUse"
       y2="30"
       id="linearGradient8645">
      <stop
         offset="0"
         style="stop-color:#565656"
         id="stop2575" />
      <stop
         offset=".5"
         style="stop-color:#9a9a9a"
         id="stop2577" />
      <stop
         offset="1"
         style="stop-color:#545454"
         id="stop2579" />
    </linearGradient>
    <linearGradient
       x1="30.038"
       y1="24.99"
       gradientTransform="matrix(0.40402,-0.40569,0.60738,0.60227,-17.983,0.80921)"
       x2="30.038"
       gradientUnits="userSpaceOnUse"
       y2="30"
       id="linearGradient8643">
      <stop
         offset="0"
         style="stop-color:#b1b1b1"
         id="stop2567" />
      <stop
         offset=".5"
         style="stop-color:#fff"
         id="stop2569" />
      <stop
         offset="1"
         style="stop-color:#8f8f8f"
         id="stop2571" />
    </linearGradient>
    <linearGradient
       x1="30.038"
       y1="24.99"
       gradientTransform="matrix(0.40402,-0.40569,0.60738,0.60227,-17.868,0.69303)"
       x2="30.038"
       gradientUnits="userSpaceOnUse"
       y2="30"
       id="linearGradient8641">
      <stop
         offset="0"
         style="stop-color:#565656"
         id="stop2559" />
      <stop
         offset=".5"
         style="stop-color:#9a9a9a"
         id="stop2561" />
      <stop
         offset="1"
         style="stop-color:#545454"
         id="stop2563" />
    </linearGradient>
    <linearGradient
       x1="23.576"
       y1="25.357"
       gradientTransform="matrix(0.41578,-0.41749,0.51898,0.51462,-15.747,2.6504)"
       x2="23.576"
       gradientUnits="userSpaceOnUse"
       y2="31.211"
       id="linearGradient8639">
      <stop
         offset="0"
         style="stop-color:#181818"
         id="stop2541" />
      <stop
         offset=".13483"
         style="stop-color:#dbdbdb"
         id="stop2543" />
      <stop
         offset=".20224"
         style="stop-color:#a4a4a4"
         id="stop2545" />
      <stop
         offset=".26966"
         style="stop-color:#fff"
         id="stop2547" />
      <stop
         offset=".44650"
         style="stop-color:#8d8d8d"
         id="stop2549" />
      <stop
         offset=".57114"
         style="stop-color:#959595"
         id="stop2551" />
      <stop
         offset=".72038"
         style="stop-color:#cecece"
         id="stop2553" />
      <stop
         offset="1"
         style="stop-color:#181818"
         id="stop2555" />
    </linearGradient>
  </defs>
  <sodipodi:namedview
     id="base"
     pagecolor="#ffffff"
     bordercolor="#666666"
     borderopacity="1.0"
     inkscape:pageopacity="0.0"
     inkscape:pageshadow="2"
     inkscape:zoom="13.052013"
     inkscape:cx="12"
     inkscape:cy="11.079007"
     inkscape:document-units="px"
     inkscape:current-layer="layer1"
     showgrid="false"
     units="px"
     width="17px"
     borderlayer="true"
     inkscape:snap-bbox="true"
     inkscape:bbox-nodes="true"
     inkscape:window-width="971"
     inkscape:window-height="576"
     inkscape:window-x="53"
     inkscape:window-y="24"
     inkscape:window-maximized="1" />
  <metadata
     id="metadata7">
    <rdf:RDF>
      <cc:Work
         rdf:about="">
        <dc:format>image/svg+xml</dc:format>
        <dc:type
           rdf:resource="http://purl.org/dc/dcmitype/StillImage" />
        <dc:title />
      </cc:Work>
    </rdf:RDF>
  </metadata>
  <g
     inkscape:label="Ebene 1"
     inkscape:groupmode="layer"
     id="layer1"
     transform="translate(0,-1026.3622)">
    <rect
       style="fill:#f0f0f0;fill-opacity:1;fill-rule:evenodd;stroke:#a2a2a2;stroke-width:1px;stroke-linecap:butt;stroke-linejoin:round;stroke-opacity:1"
       id="rect3436"
       width="28.807817"
       height="24.747602"
       x="0.68954879"
       y="1027.0022"
       ry="4.0606766" />
    <g
       id="layer1-9"
       transform="translate(7.0877747,1031.2437)">
      <path
         d="m 13.22,12.085 c -0.1356,-0.02111 -0.23946,-0.01225 -0.30769,0.003 l -9.0875,2.0172 -1.6725,0.37219 -0.051633,0.008 -1.9387,1.4327 4.9498,-0.07402 0.040722,-0.0095 1.6834,-0.3707 9.0846,-2.0326 c 0.27291,-0.06092 -0.1773,-0.40993 -1.01,-0.78431 -0.62452,-0.28079 -1.2837,-0.49854 -1.6905,-0.56188 z"
         style="opacity:0.15;fill:#0c0c0c;fill-rule:evenodd"
         id="path2422"
         inkscape:connector-curvature="0" />
      <g
         transform="matrix(1.03,0,0,1.0325,-0.016773,-0.52153)"
         id="g8626">
        <path
           d="m 2.0488,11.037 c 0.28654,-0.20771 1.148,0.25639 1.9603,1.0619 0.81045,0.80363 1.2602,1.6413 1.0576,1.9306 -7.708e-4,0.0011 0.01977,0.01774 0.01898,0.01882 l 10.138,-10.18 c 0.258,-0.2581 -0.213,-1.1432 -1.051,-1.9744 -0.838,-0.8311 -1.728,-1.295 -1.986,-1.0366 l -10.138,10.18 z"
           style="fill:url(#linearGradient8639);stroke:#0c0c0c;stroke-width:0.48484001;stroke-linejoin:round"
           id="rect2383"
           inkscape:connector-curvature="0" />
        <path
           d="m 10.565,2.4841 c 0.28654,-0.20771 1.148,0.25639 1.9603,1.0619 0.81044,0.80363 1.2602,1.6413 1.0576,1.9306 -7.69e-4,0.0011 0.01977,0.017738 0.01898,0.018821 l 1.552,-1.5571 c 0.409,-0.4086 -0.029,-1.0928 -0.981,-2.0447 -0.813,-0.8055 -1.674,-1.2696 -1.96,-1.0619 l -0.02525,0.025356 -1.6218,1.6271 z"
           style="opacity:0.8;fill:#ffb6ed;stroke:#e28ccd;stroke-width:0.48484001;stroke-linejoin:round"
           id="rect3175"
           inkscape:connector-curvature="0" />
        <path
           d="m 2.0488,11.037 c 0.28654,-0.20771 1.148,0.25639 1.9603,1.0619 0.81044,0.80363 1.2602,1.6413 1.0576,1.9306 -7.714e-4,0.0011 0.01977,0.01774 0.01898,0.01882 l 6.982,-7.0109 0.02525,-0.025356 c 7.9e-4,-0.00108 -0.01975,-0.01772 -0.01898,-0.01882 0.203,-0.2885 -0.247,-1.1262 -1.058,-1.9298 -0.812,-0.8056 -1.6734,-1.2697 -1.9599,-1.062 l -0.025251,0.025355 -6.982,7.0109 z"
           style="opacity:0.6;fill:#0c0c0c"
           id="path3208"
           inkscape:connector-curvature="0" />
        <path
           d="m 9.1785,3.8767 c 0.28654,-0.20771 1.148,0.25639 1.9603,1.0619 0.81044,0.80363 1.2602,1.6413 1.0576,1.9306 -7.71e-4,0.0011 0.01977,0.017736 0.01898,0.01882 l 0.12626,-0.12678 c 7.9e-4,-0.00108 -0.01975,-0.01772 -0.01898,-0.01882 0.203,-0.2892 -0.246,-1.1269 -1.057,-1.9305 -0.812,-0.8056 -1.6737,-1.2697 -1.9602,-1.062 L 9.1792,3.8767 Z"
           style="fill:url(#linearGradient8641)"
           id="path3233"
           inkscape:connector-curvature="0" />
        <path
           d="m 9.0628,3.9929 c 0.28654,-0.20771 1.148,0.25639 1.9603,1.0619 0.81044,0.80363 1.2602,1.6413 1.0576,1.9306 -7.71e-4,0.0011 0.01977,0.017738 0.01898,0.018822 l 0.126,-0.1268 c 7.9e-4,-0.00108 -0.01975,-0.017721 -0.01898,-0.018821 0.203,-0.2892 -0.247,-1.1269 -1.058,-1.9305 -0.812,-0.8056 -1.6734,-1.2697 -1.9599,-1.062 l -0.1263,0.1268 z"
           style="fill:url(#linearGradient8643)"
           id="path3216"
           inkscape:connector-curvature="0" />
        <path
           d="m 9.5806,3.473 c 0.28654,-0.20771 1.148,0.25639 1.9603,1.0619 0.81045,0.80363 1.2602,1.6413 1.0576,1.9306 -7.73e-4,0.0011 0.01977,0.017737 0.01898,0.01882 l 0.12626,-0.12678 c 7.91e-4,-0.00108 -0.01975,-0.017721 -0.01898,-0.01882 0.202,-0.2892 -0.247,-1.1269 -1.058,-1.9306 -0.812,-0.8055 -1.6736,-1.2696 -1.9601,-1.0619 l -0.1263,0.1268 z"
           style="fill:url(#linearGradient8645)"
           id="path3248"
           inkscape:connector-curvature="0" />
        <path
           d="m 9.4649,3.5891 c 0.28654,-0.20771 1.148,0.25639 1.9603,1.0619 0.81045,0.80363 1.2602,1.6413 1.0576,1.9306 -7.69e-4,0.0011 0.01977,0.017737 0.01898,0.018821 l 0.12626,-0.12678 c 7.9e-4,-0.00108 -0.01975,-0.01772 -0.01898,-0.01882 0.203,-0.2892 -0.247,-1.1269 -1.057,-1.9305 -0.813,-0.8055 -1.6743,-1.2696 -1.9608,-1.0619 l -0.1263,0.1267 z"
           style="fill:url(#linearGradient8647)"
           id="path3250"
           inkscape:connector-curvature="0" />
        <path
           d="m 9.9846,3.0673 c 0.2864,-0.2077 1.1484,0.2564 1.9604,1.0619 0.81045,0.80363 1.2602,1.6413 1.0576,1.9306 -7.7e-4,0.0011 0.01977,0.017738 0.01898,0.018821 l 0.126,-0.1268 C 13.148372,5.950741 13.12783,5.9341 13.1286,5.933 13.3306,5.6438 12.8816,4.8061 12.0706,4.0024 11.2586,3.1969 10.3966,2.7328 10.1106,2.9405 L 9.9842,3.0673 Z"
           style="fill:url(#linearGradient8649)"
           id="path3256"
           inkscape:connector-curvature="0" />
        <path
           d="m 9.8689,3.1835 c 0.28654,-0.20771 1.148,0.25639 1.9603,1.0619 0.81044,0.80363 1.2602,1.6413 1.0576,1.9306 -7.71e-4,0.0011 0.01977,0.017737 0.01898,0.018821 l 0.12626,-0.12678 c 7.89e-4,-0.00108 -0.01975,-0.017722 -0.01898,-0.018821 0.203,-0.2892 -0.247,-1.1269 -1.057,-1.9306 -0.813,-0.8055 -1.674,-1.2696 -1.9608,-1.0619 l -0.1263,0.1268 z"
           style="fill:url(#linearGradient8651)"
           id="path3258"
           inkscape:connector-curvature="0" />
        <path
           d="m 0.25981,15.794 4.7719,-1.7255 0.039308,-0.03926 c 0.2026,-0.289 -0.2524,-1.127 -1.0629,-1.93 -0.8124,-0.806 -1.6727,-1.268 -1.9592,-1.06 l -1.7891,4.755 z"
           style="fill:url(#linearGradient8653);fill-rule:evenodd;stroke:url(#linearGradient8655);stroke-width:0.48484001"
           id="path3270"
           inkscape:connector-curvature="0" />
        <path
           d="m 0.74443,14.506 -0.48521,1.283 1.3014,-0.473 C 1.44692,15.182 1.34132,15.048 1.20622,14.914 1.05072,14.76 0.89917,14.633 0.74445,14.506 Z"
           style="fill:#0c0c0c;fill-rule:evenodd;stroke:#0c0c0c;stroke-width:0.48484001"
           id="path3281"
           inkscape:connector-curvature="0" />
      </g>
    </g>
  </g>
</svg>
