<?xml version="1.0" encoding="UTF-8" standalone="no"?>
<!-- Created with Inkscape (http://www.inkscape.org/) -->

<svg
   xmlns:dc="http://purl.org/dc/elements/1.1/"
   xmlns:cc="http://creativecommons.org/ns#"
   xmlns:rdf="http://www.w3.org/1999/02/22-rdf-syntax-ns#"
   xmlns:svg="http://www.w3.org/2000/svg"
   xmlns="http://www.w3.org/2000/svg"
   xmlns:sodipodi="http://sodipodi.sourceforge.net/DTD/sodipodi-0.dtd"
   xmlns:inkscape="http://www.inkscape.org/namespaces/inkscape"
   width="30"
   height="26"
   viewBox="0 0 30 26"
   id="svg2"
   version="1.1"
   inkscape:version="0.91 r13725"
   sodipodi:docname="help-contents_btn.svg">
  <defs
     id="defs4">
    <linearGradient
       x1="63.397"
       y1="-12.489"
       gradientTransform="matrix(0.74324,0,0,0.74322,-38.23,10.609)"
       x2="63.397"
       gradientUnits="userSpaceOnUse"
       y2="5.4676"
       id="linearGradient2406">
      <stop
         offset="0"
         style="stop-color:#fff"
         id="stop4875" />
      <stop
         offset="1"
         style="stop-color:#fff;stop-opacity:0"
         id="stop4877" />
    </linearGradient>
    <linearGradient
       x1="18.379"
       y1="44.98"
       gradientTransform="matrix(0.36857,0,0,0.36857,-0.84577,-0.84577)"
       x2="18.379"
       gradientUnits="userSpaceOnUse"
       y2="3.0816"
       id="linearGradient2411">
      <stop
         offset="0"
         style="stop-color:#1f4b6a"
         id="stop2788" />
      <stop
         offset="1"
         style="stop-color:#4083c2"
         id="stop2790" />
    </linearGradient>
    <radialGradient
       r="20.397"
       gradientTransform="matrix(0,0.87966,-1.1611,0,12.633,-21.084)"
       cx="23.896"
       cy="3.99"
       gradientUnits="userSpaceOnUse"
       id="radialGradient2409">
      <stop
         offset="0"
         style="stop-color:#8badea"
         id="stop2778" />
      <stop
         offset=".26238"
         style="stop-color:#6396cd"
         id="stop2780" />
      <stop
         offset=".66094"
         style="stop-color:#3b7caf"
         id="stop2782" />
      <stop
         offset="1"
         style="stop-color:#194c70"
         id="stop2784" />
    </radialGradient>
  </defs>
  <sodipodi:namedview
     id="base"
     pagecolor="#ffffff"
     bordercolor="#666666"
     borderopacity="1.0"
     inkscape:pageopacity="0.0"
     inkscape:pageshadow="2"
     inkscape:zoom="13.052013"
     inkscape:cx="12"
     inkscape:cy="11.079007"
     inkscape:document-units="px"
     inkscape:current-layer="layer1"
     showgrid="false"
     units="px"
     width="17px"
     borderlayer="true"
     inkscape:snap-bbox="true"
     inkscape:bbox-nodes="true"
     inkscape:window-width="971"
     inkscape:window-height="576"
     inkscape:window-x="53"
     inkscape:window-y="24"
     inkscape:window-maximized="1" />
  <metadata
     id="metadata7">
    <rdf:RDF>
      <cc:Work
         rdf:about="">
        <dc:format>image/svg+xml</dc:format>
        <dc:type
           rdf:resource="http://purl.org/dc/dcmitype/StillImage" />
        <dc:title />
      </cc:Work>
    </rdf:RDF>
  </metadata>
  <g
     inkscape:label="Ebene 1"
     inkscape:groupmode="layer"
     id="layer1"
     transform="translate(0,-1026.3622)">
    <rect
       style="fill:#f0f0f0;fill-opacity:1;fill-rule:evenodd;stroke:#a2a2a2;stroke-width:1px;stroke-linecap:butt;stroke-linejoin:round;stroke-opacity:1"
       id="rect3436"
       width="28.807817"
       height="24.747602"
       x="0.68954879"
       y="1027.0022"
       ry="4.0606766" />
    <g
       id="layer1-1"
       transform="translate(7.0001,1031.3623)">
      <g
         id="g2493">
        <path
           d="m 8,0.50183 c -4.1372,0 -7.4982,3.361 -7.4982,7.4982 3e-5,4.137 3.361,7.498 7.4982,7.498 4.137,0 7.498,-3.361 7.498,-7.498 0,-4.1372 -3.361,-7.4982 -7.498,-7.4982 z"
           style="fill:url(#radialGradient2409);stroke:url(#linearGradient2411);stroke-width:1.00370002;stroke-linecap:round;stroke-linejoin:round"
           id="path2555"
           inkscape:connector-curvature="0" />
        <path
           d="M 14.5,7.9998 C 14.5,11.59 11.59,14.5 8.0001,14.5 4.4102,14.5 1.5,11.59 1.5,7.9998 1.5,4.41 4.4102,1.5 8.0001,1.5 11.59,1.5 14.5,4.41 14.5,7.9998 Z"
           style="opacity:0.4;fill:none;stroke:url(#linearGradient2406)"
           id="path2463"
           inkscape:connector-curvature="0" />
      </g>
      <path
         d="M 8.3414,9.986 C 8.3166,9.0788 8.5148,8.1981 9.3505,7.5742 10.233,6.8687 11.083,5.986 10.993,4.9455 10.974,3.942 9.8339,3.1556 8.6056,3.0426 7.2241,2.8463 5.5524,3.3317 5.0894,4.4383 4.8546,4.9765 5.0723,5.9422 5.8603,5.9422 6.3212,5.9422 6.5329,5.6368 6.5677,5.3575 6.594,5.1461 6.5094,4.9574 6.4594,4.7828 6.4025,4.5839 6.6455,4.1984 6.9102,4.0413 7.1314,3.91 7.3628,3.866 7.3969,3.8576 8.1912,3.6618 8.983,4.0943 9.3134,4.6207 9.6437,5.147 9.2801,5.9454 8.7573,6.7218 8.2345,7.4982 7.6735,8.3801 7.6757,9.3167 c 0,0.3566 -0.031,0.4777 -0.009,0.622 C 7.6843,10.054 8.0564,10.04 8.3414,9.986 Z M 7.9789,11.207 C 7.2194,11.165 6.6938,12.048 7.15,12.61 7.5575,13.232 8.6999,13.078 8.8957,12.375 9.0993,11.828 8.6094,11.198 7.9789,11.207 Z"
         style="fill:#ffffff"
         id="path3298"
         inkscape:connector-curvature="0" />
    </g>
  </g>
</svg>
