<?xml version="1.0" encoding="UTF-8" standalone="no"?>
<!-- Created with Inkscape (http://www.inkscape.org/) -->

<svg
   xmlns:dc="http://purl.org/dc/elements/1.1/"
   xmlns:cc="http://creativecommons.org/ns#"
   xmlns:rdf="http://www.w3.org/1999/02/22-rdf-syntax-ns#"
   xmlns:svg="http://www.w3.org/2000/svg"
   xmlns="http://www.w3.org/2000/svg"
   xmlns:sodipodi="http://sodipodi.sourceforge.net/DTD/sodipodi-0.dtd"
   xmlns:inkscape="http://www.inkscape.org/namespaces/inkscape"
   width="30"
   height="26"
   viewBox="0 0 30 26"
   id="svg2"
   version="1.1"
   inkscape:version="0.91 r13725"
   sodipodi:docname="list-add_btn.svg">
  <defs
     id="defs4">
    <linearGradient
       x1="24.104"
       y1="15.181"
       gradientTransform="matrix(0.70965,0,0,0.70537,-8.945,-8.2363)"
       x2="24.104"
       gradientUnits="userSpaceOnUse"
       y2="34.225"
       id="linearGradient2401">
      <stop
         offset="0"
         style="stop-color:#d7e866"
         id="stop2266" />
      <stop
         offset="1"
         style="stop-color:#8cab2a"
         id="stop2268" />
    </linearGradient>
    <linearGradient
       x1="8"
       x2="8"
       gradientUnits="userSpaceOnUse"
       y2="16.004"
       id="linearGradient3190">
      <stop
         offset="0"
         style="stop-color:#fff"
         id="stop3182" />
      <stop
         offset="1"
         style="stop-color:#fff;stop-opacity:0"
         id="stop3184" />
    </linearGradient>
  </defs>
  <sodipodi:namedview
     id="base"
     pagecolor="#ffffff"
     bordercolor="#666666"
     borderopacity="1.0"
     inkscape:pageopacity="0.0"
     inkscape:pageshadow="2"
     inkscape:zoom="13.052013"
     inkscape:cx="10.107795"
     inkscape:cy="11.079007"
     inkscape:document-units="px"
     inkscape:current-layer="layer1"
     showgrid="false"
     units="px"
     width="17px"
     borderlayer="true"
     inkscape:snap-bbox="true"
     inkscape:bbox-nodes="true"
     inkscape:window-width="971"
     inkscape:window-height="576"
     inkscape:window-x="53"
     inkscape:window-y="24"
     inkscape:window-maximized="1" />
  <metadata
     id="metadata7">
    <rdf:RDF>
      <cc:Work
         rdf:about="">
        <dc:format>image/svg+xml</dc:format>
        <dc:type
           rdf:resource="http://purl.org/dc/dcmitype/StillImage" />
        <dc:title />
      </cc:Work>
    </rdf:RDF>
  </metadata>
  <g
     inkscape:label="Ebene 1"
     inkscape:groupmode="layer"
     id="layer1"
     transform="translate(0,-1026.3622)">
    <rect
       style="fill:#f0f0f0;fill-opacity:1;fill-rule:evenodd;stroke:#a2a2a2;stroke-width:1px;stroke-linecap:butt;stroke-linejoin:round;stroke-opacity:1"
       id="rect3436"
       width="28.807817"
       height="24.747602"
       x="0.68954879"
       y="1027.0022"
       ry="4.0606766" />
    <g
       id="layer1-3"
       transform="translate(7,1031.3622)">
      <path
         d="m 5.5,5.5 0,-5 5,0 0,5 5,0 0,5 -5,0 0,5 -5,0 0,-5 -5,0 0,-5 5,0 z"
         style="fill:url(#linearGradient2401);fill-rule:evenodd;stroke:#699536;stroke-linejoin:round"
         id="path2262"
         inkscape:connector-curvature="0" />
      <path
         d="m 6.5,1.5 0,4 c -0.00481,0.55028 -0.44972,0.99519 -1,1 l -4,0 0,3 4,0 c 0.55028,0.00481 0.99519,0.44972 1,1 l 0,4 3,0 0,-4 c 0.00481,-0.55028 0.44972,-0.99519 1,-1 l 4,0 0,-3 -4,0 C 9.9497,6.4952 9.5048,6.0503 9.5,5.5 l 0,-4 -3,0 z"
         style="opacity:0.4;fill:none;stroke:url(#linearGradient3190)"
         id="path3188"
         inkscape:connector-curvature="0" />
    </g>
  </g>
</svg>
